<?xml version="1.0" encoding="UTF-8" standalone="no"?>
<!-- Created with Inkscape (http://www.inkscape.org/) -->

<svg
   width="256"
   height="256"
   viewBox="0 40 298.66667 298.66667"
   version="1.1"
   id="svg1"
   xml:space="preserve"
   inkscape:version="1.4.2 (ebf0e940d0, 2025-05-08)"
   sodipodi:docname="orc-gui-icon.svg"
   inkscape:export-filename="orc-gui-icon-256.png"
   inkscape:export-xdpi="96"
   inkscape:export-ydpi="96"
   xmlns:inkscape="http://www.inkscape.org/namespaces/inkscape"
   xmlns:sodipodi="http://sodipodi.sourceforge.net/DTD/sodipodi-0.dtd"
   xmlns="http://www.w3.org/2000/svg"
   xmlns:svg="http://www.w3.org/2000/svg"><sodipodi:namedview
     id="namedview1"
     pagecolor="#ffffff"
     bordercolor="#000000"
     borderopacity="0.25"
     inkscape:showpageshadow="2"
     inkscape:pageopacity="0.0"
     inkscape:pagecheckerboard="0"
     inkscape:deskcolor="#d1d1d1"
     inkscape:document-units="mm"
     inkscape:zoom="1"
     inkscape:cx="-14.5"
     inkscape:cy="198.5"
     inkscape:window-width="5120"
     inkscape:window-height="1374"
     inkscape:window-x="0"
     inkscape:window-y="0"
     inkscape:window-maximized="1"
     inkscape:current-layer="layer1" /><defs
     id="defs1"><inkscape:path-effect
       effect="fill_between_many"
       method="originald"
       linkedpaths="#path21-9,0,1"
       id="path-effect39"
       is_visible="true"
       lpeversion="0"
       join="true"
       close="true"
       autoreverse="true" /></defs><g
     inkscape:label="Layer 1"
     inkscape:groupmode="layer"
     id="layer1"><g
       id="g1"
       transform="matrix(1.6145871,0,0,1.6142803,-16.468773,-59.752428)"><rect
         style="fill:#1212b5;fill-opacity:1;fill-rule:nonzero;stroke:#000000;stroke-width:5;stroke-dasharray:none;stroke-opacity:1"
         id="rect39"
         width="180"
         height="180"
         x="12.69999"
         y="64.293747"
         ry="8.4666653"
         inkscape:label="Background" /><text
         xml:space="preserve"
         style="font-style:normal;font-variant:normal;font-weight:bold;font-stretch:semi-condensed;font-size:50.8px;font-family:'DejaVu Sans';-inkscape-font-specification:'DejaVu Sans Bold Semi-Condensed';text-align:start;writing-mode:tb-rl;direction:ltr;text-anchor:start;display:inline;fill:#ffffff;fill-opacity:1;fill-rule:nonzero;stroke-width:0.264583"
         x="153.9875"
         y="100.27708"
         id="text38"
         inkscape:label="ORC Text"><tspan
           sodipodi:role="line"
           id="tspan38"
           style="font-style:normal;font-variant:normal;font-weight:bold;font-stretch:semi-condensed;font-size:50.8px;font-family:'DejaVu Sans';-inkscape-font-specification:'DejaVu Sans Bold Semi-Condensed';writing-mode:tb-rl;stroke-width:0.264583"
           x="153.9875"
           y="100.27708">ORC</tspan></text><path
         style="display:inline;fill:#ffffff;fill-opacity:1;stroke:none;stroke-width:1.14257;stroke-opacity:1"
         d="m 78.388557,226.87588 c 3.27212,-2.60046 6.58242,-5.91255 7.13668,-10.24632 2.14657,2.27277 1.30583,5.69135 -0.77505,7.70878 5.1664,-1.85957 9.33373,-6.58876 12.57469,-10.48883 -0.50091,2.00435 -1.613,5.7393 0.98222,2.11055 3.172413,-2.8472 4.417653,-7.25452 4.827903,-11.23844 1.44357,-2.20659 3.33357,-4.17699 4.49523,-6.53273 1.44159,1.19123 -0.6209,7.72895 1.82027,3.53871 2.24,-3.466 2.45197,-7.66887 1.99298,-11.65726 1.35693,2.33372 2.84351,3.40784 2.95307,-0.0979 1.20014,-2.03888 -3.69932,-6.67041 -0.66342,-5.1892 2.7058,0.84309 0.43389,-4.06371 -0.40153,-5.35466 -1.68127,-3.96938 -5.12905,-7.90354 -4.18328,-12.38125 1.59536,-4.04472 4.7434,-8.46014 2.25567,-12.80144 -2.52693,-4.69608 -2.80633,-10.16845 -1.14449,-15.19854 1.42154,-4.68893 0.98691,-9.81314 -1.32837,-14.13973 -4.97914,-10.03462 -15.279653,-16.82758 -26.306853,-18.24311 -8.59727,-1.37601 -17.72278,-0.54369 -25.60211,3.3607 -8.35036,3.92792 -15.64813,11.40939 -17.40088,20.67037 -1.33797,6.0082 2.75338,11.73966 1.61786,17.68524 -0.79302,4.42729 -4.62438,8.75359 -2.14543,13.29252 1.52231,2.98795 3.36018,6.19102 2.1208,9.61118 -1.44972,4.77399 -5.0601,8.78073 -5.77975,13.7541 2.74524,-0.77415 3.24301,-1.14785 1.43799,1.81239 -1.14439,1.23355 -0.37501,6.42732 0.70548,5.26884 2.64431,-4.20563 1.15193,1.42476 1.56832,3.54266 0.61248,2.71845 1.44337,5.71612 3.55931,7.51432 -0.48295,-1.46399 -0.5197,-6.8145 1.06334,-3.51029 1.91641,2.46264 4.39274,4.65934 4.21559,8.02178 0.55187,3.97089 3.24586,7.39922 6.26461,9.69685 -0.23854,-1.12529 -2.04018,-5.69908 0.52488,-1.88523 3.03087,3.53253 6.44032,7.24913 10.89336,8.83825 -1.57087,-1.95714 -3.29361,-5.49933 -0.87418,-7.25532 0.56701,1.95074 1.86364,4.92613 3.86595,6.51919 2.11547,1.99922 4.30192,4.64874 6.98872,5.57301 0.91347,-0.7664 1.82695,-1.53279 2.74042,-2.29919 z m -41.791,-58.7859 c 2.84462,-1.1215 1.13086,-4.9884 0.6571,-7.22779 -1.75377,-2.11783 -5.10912,-3.56481 -4.2111,-6.79339 0.80858,-4.38186 -2.38677,-7.80711 -3.99269,-11.6121 -0.87845,-1.91182 -3.88406,-6.83323 -0.56885,-2.81173 3.69686,3.34885 6.19375,7.9332 9.41856,11.53554 1.24358,-2.55964 1.21314,-6.34778 0.25149,-9.13077 -3.98183,-6.84888 -11.45201,-10.45771 -17.62743,-15.02999 0.46228,5.23025 2.23935,10.78424 3.33465,16.11244 1.28676,5.77933 3.93432,11.13778 6.2718,16.4978 0.16695,3.39066 0.93289,7.60608 4.66012,8.69671 0.57852,0.28085 1.24932,-0.0418 1.80635,-0.23672 z m 80.155263,-0.30755 c 4.30883,-2.01647 2.48133,-7.35951 4.71955,-10.67899 4.64017,-9.29129 6.41248,-19.67368 8.62918,-29.73197 -0.99018,-0.26239 -4.07466,2.55416 -5.76657,3.55997 -4.22498,3.15685 -8.91239,6.17019 -11.71034,10.69722 -1.30858,2.65187 -0.51228,5.79738 -0.30523,8.60001 0.74165,3.1475 2.37817,-2.37466 3.73872,-3.2389 2.36288,-3.16532 4.78224,-6.34713 7.76485,-8.95952 -2.00432,4.19795 -4.61124,8.26324 -6.27336,12.53347 0.002,2.97421 0.97964,6.77033 -2.26132,8.46185 -2.28088,1.44778 -2.59196,4.55576 -3.04082,6.99792 0.44644,2.01243 2.83534,3.2278 4.50534,1.75894 z m -1.26999,-44.56513 c 0.25169,-5.94504 -5.93435,-9.43132 -6.29961,-15.22497 -0.9359,-1.36696 -3.39023,-6.15801 -4.03175,-4.84322 2.11951,5.5696 2.07465,12.21423 6.54128,16.71434 1.99842,2.16505 2.93354,5.02546 3.38529,7.88843 0.42062,-1.50538 0.66451,-2.97302 0.40479,-4.53458 z m -10.35304,-11.86548 c -0.30311,-8.36439 -5.284123,-16.62974 -13.186933,-19.83971 -0.98431,-1.13399 -7.43909,-1.9586 -4.04303,-1.98628 7.62436,0.93003 15.093443,5.03051 19.337233,11.53919 -0.1214,-2.834647 -2.4887,-5.55566 -4.13537,-7.91902 -4.500403,-4.60007 -10.021563,-8.31567 -16.398983,-9.64101 4.36899,-0.31693 8.7035,0.95048 12.61969,2.67994 -5.62462,-6.25022 -14.90785,-7.9453 -22.89806,-6.34698 2.25797,-1.118 4.43028,-2.5956 7.06848,-2.11756 -0.35619,-1.69681 -4.90838,-1.15112 -6.98693,-1.04908 -1.47964,0.0389 -5.99604,3.48994 -5.32155,1.91627 1.7198,-2.38022 -3.62347,-0.20784 -4.46139,0.55164 -1.66896,2.21491 -4.66909,2.77898 -6.46055,4.606 -1.59235,1.82312 2.33424,5.92018 -1.48339,4.67288 -3.0791,-0.83216 -4.95969,2.59305 -7.446,3.86662 -1.72992,1.60017 7.05752,-1.09012 2.75341,1.17741 -4.24823,2.97128 -8.62807,7.53908 -7.88229,13.12838 1.67478,-4.06901 5.42473,-6.687157 9.32877,-8.408777 -3.0891,3.163117 -5.71788,7.016797 -5.86256,11.577397 3.61083,-1.72536 6.2898,-5.11493 9.65555,-6.94743 -2.38922,2.5819 -1.14095,3.11819 1.6491,1.59142 2.82807,-0.2864 4.16257,-2.21651 4.93459,-4.765627 2.37075,-2.669243 6.41696,-2.257263 9.64675,-2.795113 4.02205,0.23868 9.04021,1.208743 10.31662,5.65975 1.32874,2.05667 4.735,1.50839 6.77315,2.83062 2.96198,2.08786 2.94249,0.30027 0.87973,-1.7431 -3.05787,-3.25106 -2.26397,-3.01151 0.92365,-0.60269 4.31281,2.64753 7.150353,7.26842 10.861833,10.40542 -0.0606,-0.68018 -0.12102,-1.36038 -0.18152,-2.04056 z"
         id="path21-1-7"
         inkscape:label="Orc head fill"
         sodipodi:nodetypes="sccccccccccccccccccccccccccccccccccsccccccccccccccccccccccccccccccccccccccccccccccccccccccccccc" /><path
         style="display:inline;fill:none;fill-opacity:1;stroke:#000000;stroke-width:1.14257;stroke-opacity:1"
         d="m 78.501417,227.09808 c 3.27212,-2.60046 6.58242,-5.91255 7.13668,-10.24632 2.14657,2.27277 1.30583,5.69135 -0.77505,7.70878 5.1664,-1.85957 9.33373,-6.58876 12.57469,-10.48883 -0.50091,2.00435 -1.613,5.7393 0.98222,2.11055 3.172413,-2.8472 4.417653,-7.25452 4.827903,-11.23844 1.44357,-2.20659 3.33357,-4.17699 4.49523,-6.53273 1.44159,1.19123 -0.6209,7.72895 1.82027,3.53871 2.24,-3.466 2.45197,-7.66887 1.99298,-11.65726 1.35693,2.33372 2.84351,3.40784 2.95307,-0.0979 1.20014,-2.03888 -3.69932,-6.67041 -0.66342,-5.1892 2.7058,0.84309 0.43389,-4.06371 -0.40153,-5.35466 -1.68127,-3.96938 -5.12905,-7.90354 -4.18328,-12.38125 1.59536,-4.04472 4.7434,-8.46014 2.25567,-12.80144 -2.52693,-4.69608 -2.80633,-10.16845 -1.14449,-15.19854 1.42154,-4.68893 0.98691,-9.81314 -1.32837,-14.13973 -4.97914,-10.03462 -15.279653,-16.82758 -26.306853,-18.24311 -8.59727,-1.37601 -17.72278,-0.54369 -25.60211,3.3607 -8.35036,3.92792 -15.64813,11.40939 -17.40088,20.67037 -1.33797,6.0082 2.75338,11.73966 1.61786,17.68524 -0.79302,4.42729 -4.62438,8.75359 -2.14543,13.29252 1.52231,2.98795 3.36018,6.19102 2.1208,9.61118 -1.44972,4.77399 -5.0601,8.78073 -5.77975,13.7541 2.74524,-0.77415 3.24301,-1.14785 1.43799,1.81239 -1.14439,1.23355 -0.37501,6.42732 0.70548,5.26884 2.64431,-4.20563 1.15193,1.42476 1.56832,3.54266 0.61248,2.71845 1.44337,5.71612 3.55931,7.51432 -0.48295,-1.46399 -0.5197,-6.8145 1.06334,-3.51029 1.91641,2.46264 4.39274,4.65934 4.21559,8.02178 0.55187,3.97089 3.24586,7.39922 6.26461,9.69685 -0.23854,-1.12529 -2.04018,-5.69908 0.52488,-1.88523 3.03087,3.53253 6.44032,7.24913 10.89336,8.83825 -1.57087,-1.95714 -3.29361,-5.49933 -0.87418,-7.25532 0.56701,1.95074 1.86364,4.92613 3.86595,6.51919 2.11547,1.99922 4.30192,4.64874 6.98872,5.57301 0.91347,-0.7664 1.82695,-1.53279 2.74042,-2.29919 z m -41.791,-58.7859 c 2.84462,-1.1215 1.13086,-4.9884 0.6571,-7.22779 -1.75377,-2.11783 -5.10912,-3.56481 -4.2111,-6.79339 0.80858,-4.38186 -2.38677,-7.80711 -3.99269,-11.6121 -0.87845,-1.91182 -3.88406,-6.83323 -0.56885,-2.81173 3.69686,3.34885 6.19375,7.9332 9.41856,11.53554 1.24358,-2.55964 1.21314,-6.34778 0.25149,-9.13077 -3.98183,-6.84888 -11.45201,-10.45771 -17.62743,-15.02999 0.46228,5.23025 2.23935,10.78424 3.33465,16.11244 1.28676,5.77933 3.93432,11.13778 6.2718,16.4978 0.16695,3.39066 0.93289,7.60608 4.66012,8.69671 0.57852,0.28085 1.24932,-0.0418 1.80635,-0.23672 z m 80.155263,-0.30755 c 4.30883,-2.01647 2.48133,-7.35951 4.71955,-10.67899 4.64017,-9.29129 6.41248,-19.67368 8.62918,-29.73197 -0.99018,-0.26239 -4.07466,2.55416 -5.76657,3.55997 -4.22498,3.15685 -8.91239,6.17019 -11.71034,10.69722 -1.30858,2.65187 -0.51228,5.79738 -0.30523,8.60001 0.74165,3.1475 2.37817,-2.37466 3.73872,-3.2389 2.36288,-3.16532 4.78224,-6.34713 7.76485,-8.95952 -2.00432,4.19795 -4.61124,8.26324 -6.27336,12.53347 0.002,2.97421 0.97964,6.77033 -2.26132,8.46185 -2.28088,1.44778 -2.59196,4.55576 -3.04082,6.99792 0.44644,2.01243 2.83534,3.2278 4.50534,1.75894 z m -1.26999,-44.56513 c 0.25169,-5.94504 -5.93435,-9.43132 -6.29961,-15.22497 -0.9359,-1.36696 -3.39023,-6.15801 -4.03175,-4.84322 2.11951,5.5696 2.07465,12.21423 6.54128,16.71434 1.99842,2.16505 2.93354,5.02546 3.38529,7.88843 0.42062,-1.50538 0.66451,-2.97302 0.40479,-4.53458 z m -10.35304,-11.86548 c -0.30311,-8.36439 -5.284123,-16.62974 -13.186933,-19.83971 -0.98431,-1.13399 -7.43909,-1.9586 -4.04303,-1.98628 7.62436,0.93003 15.093443,5.03051 19.337233,11.53919 -0.1214,-2.834647 -2.4887,-5.55566 -4.13537,-7.91902 -4.500403,-4.60008 -10.021563,-8.31568 -16.398983,-9.64102 4.36899,-0.31693 8.7035,0.95048 12.61969,2.67994 -5.62462,-6.25022 -14.90785,-7.9453 -22.89806,-6.34698 2.25797,-1.118 4.43028,-2.5956 7.06848,-2.11756 -0.35619,-1.69681 -4.90838,-1.15112 -6.98693,-1.04908 -1.47964,0.0389 -5.99604,3.48994 -5.32155,1.91627 1.7198,-2.38022 -3.62347,-0.20784 -4.46139,0.55164 -1.66896,2.21491 -4.66909,2.77898 -6.46055,4.606 -1.59235,1.82312 2.33424,5.92019 -1.48339,4.67288 -3.0791,-0.83216 -4.95969,2.59306 -7.446,3.86663 -1.72992,1.60017 7.05752,-1.09012 2.75341,1.17741 -4.24823,2.97128 -8.62807,7.53908 -7.88229,13.12838 1.67478,-4.06901 5.42473,-6.68716 9.32877,-8.408777 -3.0891,3.163117 -5.71788,7.016797 -5.86256,11.577397 3.61083,-1.72536 6.2898,-5.11493 9.65555,-6.94743 -2.38922,2.5819 -1.14095,3.11819 1.6491,1.59142 2.82807,-0.2864 4.16257,-2.21651 4.93459,-4.765627 2.37075,-2.669243 6.41696,-2.257263 9.64675,-2.795113 4.02205,0.23868 9.04021,1.208743 10.31662,5.65975 1.32874,2.05667 4.735,1.50839 6.77315,2.83062 2.96198,2.08786 2.94249,0.30027 0.87973,-1.7431 -3.05787,-3.25106 -2.26397,-3.01151 0.92365,-0.60269 4.31281,2.64753 7.150353,7.26842 10.861833,10.40542 -0.0606,-0.68018 -0.12102,-1.36038 -0.18152,-2.04056 z"
         id="path21-1"
         inkscape:label="Orc head outline"
         sodipodi:nodetypes="sccccccccccccccccccccccccccccccccccsccccccccccccccccccccccccccccccccccccccccccccccccccccccccccc" /><path
         style="fill:#f50000;fill-opacity:1;fill-rule:nonzero;stroke:none;stroke-width:0.264583;stroke-opacity:1"
         d="m 49.741667,150.54791 c 6.08541,0.52916 17.72708,10.58334 17.72708,10.58334 l -13.22916,-0.52918 c 0,0 -7.67292,-10.58333 -4.49792,-10.05416 z"
         id="path39"
         sodipodi:nodetypes="cccc"
         inkscape:label="Eye left" /><path
         style="fill:#f50000;fill-opacity:1;fill-rule:nonzero;stroke:none;stroke-width:0.264583;stroke-opacity:1"
         d="m 100.80624,150.56711 c -6.085413,0.52916 -17.727083,10.58334 -17.727083,10.58334 l 13.22916,-0.52918 c 0,0 7.672923,-10.58333 4.497923,-10.05416 z"
         id="path39-4"
         sodipodi:nodetypes="cccc"
         inkscape:label="Eye right" /><path
         style="display:inline;fill:#000000;fill-opacity:1;stroke:none;stroke-width:1.14257;stroke-opacity:1"
         d="m 50.497747,199.70801 c -5.50324,-2.4481 -7.04231,-9.23539 -7.52022,-14.72461 -0.31178,-5.39427 1.27706,-11.36508 5.1305,-15.25996 2.71468,-1.97015 3.50265,2.06065 3.80876,4.04787 0.80575,4.2562 2.77111,8.16602 4.92962,11.88414 0.36088,-2.21688 2.6196,-4.18522 4.70801,-2.47169 3.82355,2.37069 8.41511,3.2686 12.85422,3.31619 5.46008,0.16492 10.82366,-1.14408 15.53611,-3.9221 2.90216,-1.40814 2.83097,5.32008 4.34206,1.53834 2.76239,-4.2323 3.7855,-9.28496 5.16161,-13.99621 1.390203,-2.82203 4.018713,0.79302 4.931153,2.30893 4.08356,7.02192 3.73208,16.29953 -0.11552,23.35266 -2.06207,4.22485 -7.378773,5.33691 -11.449573,3.51943 -4.29451,-1.45562 -8.05413,-5.48476 -12.77881,-5.03414 -2.77095,2.06306 -3.19906,-1.42184 -5.48432,-1.26903 -0.78216,2.79448 -3.10895,1.43583 -5.23174,1.0538 -6.56722,0.80981 -11.83374,7.82108 -18.82186,5.65638 z m 6.32077,-3.06687 c 3.50764,-0.59874 0.33493,-3.98578 0.16484,-6.05219 -4.07193,-5.21919 -6.28164,-11.47772 -8.08196,-17.76716 -4.2288,3.99023 -4.25777,10.51261 -3.28089,15.85689 0.77128,3.62755 2.58551,8.2431 6.60562,8.99582 1.62339,-0.12775 3.20848,-0.0241 4.59239,-1.03336 z m 43.289803,0.21474 c 4.4556,-3.42272 5.12881,-9.82912 5.03436,-15.13176 -0.53391,-3.14246 -1.09162,-6.68891 -3.60117,-8.87209 -1.26837,1.84384 -1.542593,4.88441 -2.536033,7.1889 -1.46121,4.34316 -4.40091,8.005 -6.25775,12.11027 -1.84942,2.90612 -0.7144,4.95595 2.67473,5.28076 1.43701,0.40556 3.40146,0.27202 4.685863,-0.57608 z m -9.593533,-3.34015 c 0.71362,-2.28024 0.86288,-5.17076 0.10357,-7.43906 -1.55107,-2.85935 -2.82799,2.69241 -4.22462,3.70314 -2.88994,2.18296 -1.12865,3.3501 1.54175,4.28848 1.26829,0.75117 2.13874,1.42859 2.5793,-0.55256 z m -27.27442,-0.0906 c 4.29714,-0.80115 0.84739,-2.74765 -0.41199,-4.90616 -0.4344,-2.25246 -3.60364,-5.34386 -3.48485,-1.2699 0.35211,2.43534 -0.99098,5.84148 1.30231,7.42099 0.86484,-0.41498 1.72969,-0.82995 2.59453,-1.24493 z m 9.85609,-16.57122 c -3.09366,-0.6941 -4.53639,-4.33114 -7.99125,-4.17256 -3.31413,-0.0414 -5.52664,-4.10031 -3.241,-6.68679 3.55124,-2.26207 0.78985,-2.73343 -2.18813,-2.82392 -5.37671,-0.20346 -10.71956,-3.59278 -11.73438,-9.1412 -0.37638,-2.05891 -1.80834,-4.82855 -0.11599,-6.51898 5.13198,-0.29155 8.5442,4.54492 12.58379,7.03534 3.13661,2.01083 6.17083,4.76236 9.90939,5.41543 2.37759,-0.84432 4.61453,-4.10026 2.40042,0.0823 -2.40827,2.5469 -6.30991,3.30159 -8.42009,6.33463 -2.74359,2.36722 1.29387,4.00147 3.40471,4.20325 2.93721,1.05726 4.6663,4.76059 8.27038,3.83426 3.29441,-0.42219 4.78305,-4.3157 8.28655,-4.26872 3.45296,-0.25086 2.69403,-3.97637 0.10035,-5.00284 -1.86909,-1.8985 -4.21934,-3.1614 -6.42252,-4.4621 -1.99017,-2.07949 -1.9212,-4.98836 0.29613,-1.45609 3.64468,2.00225 6.99837,-1.92555 10.13925,-3.39774 4.14197,-2.71138 7.54619,-6.92258 12.350263,-8.37812 3.43053,-0.87032 2.33433,3.5937 1.85723,5.57209 -0.81251,5.32553 -5.279423,9.6484 -10.700663,10.02649 -1.36362,1.16752 -7.46232,-0.53964 -5.24814,1.37857 3.00435,1.5193 3.60331,6.56539 0.0126,7.72075 -2.46715,0.87536 -5.2822,1.08962 -6.93499,3.47957 -1.84454,1.58104 -4.31982,1.8424 -6.6139,1.22643 z m 20.54164,-16.71103 c 3.92315,-0.8684 5.81854,-4.98131 6.09056,-8.70245 -3.72638,1.12195 -6.81642,4.25176 -10.13359,6.40359 -1.014,1.30294 -6.40504,3.04616 -2.32749,3.17769 2.13557,-0.0972 4.36522,-0.0167 6.37052,-0.87883 z m -29.00423,0.52912 c -4.42958,-2.99587 -8.73353,-6.8762 -13.60905,-9.23157 -0.90893,1.9486 0.69474,5.05979 2.10792,6.91959 3.31564,2.63489 7.7014,2.72042 11.50113,2.31198 z"
         id="path21-5"
         inkscape:label="Orc face"
         sodipodi:nodetypes="cccccccccccccccccccccccccccccccsccccscccccscccccccccccccccccccccccsccccccc" /></g></g></svg>
